<?xml version="1.0" encoding="us-ascii" standalone="no"?><svg xmlns="http://www.w3.org/2000/svg" xmlns:xlink="http://www.w3.org/1999/xlink" contentStyleType="text/css" height="570px" preserveAspectRatio="none" style="width:416px;height:570px;background:#FFFFFF;" version="1.1" viewBox="0 0 416 570" width="416px" zoomAndPan="magnify"><defs/><g><text fill="#000000" font-family="sans-serif" font-size="14" font-weight="bold" lengthAdjust="spacing" textLength="231" x="112.75" y="29.9659">Responder and Initiator in Action</text><line style="stroke:#181818;stroke-width:0.5;stroke-dasharray:5.0,5.0;" x1="70" x2="70" y1="124.1358" y2="487.49"/><line style="stroke:#181818;stroke-width:0.5;stroke-dasharray:5.0,5.0;" x1="252" x2="252" y1="124.1358" y2="487.49"/><line style="stroke:#181818;stroke-width:0.5;stroke-dasharray:5.0,5.0;" x1="391" x2="391" y1="124.1358" y2="487.49"/><rect fill="#E2E2F0" height="33.0679" rx="2.5" ry="2.5" style="stroke:#181818;stroke-width:0.5;" width="87" x="26.5" y="90.0679"/><text fill="#000000" font-family="sans-serif" font-size="14" lengthAdjust="spacing" textLength="73" x="33.5" y="112.0339">Responder</text><rect fill="#E2E2F0" height="33.0679" rx="2.5" ry="2.5" style="stroke:#181818;stroke-width:0.5;" width="68" x="218" y="90.0679"/><text fill="#000000" font-family="sans-serif" font-size="14" lengthAdjust="spacing" textLength="54" x="225" y="112.0339">Initiator</text><text fill="#000000" font-family="sans-serif" font-size="14" lengthAdjust="spacing" textLength="31" x="372.5" y="120.0339">User</text><ellipse cx="391" cy="53.5679" fill="#E2E2F0" rx="8" ry="8" style="stroke:#181818;stroke-width:0.5;"/><path d="M391,61.5679 L391,88.5679 M378,69.5679 L404,69.5679 M391,88.5679 L378,103.5679 M391,88.5679 L404,103.5679 " fill="none" style="stroke:#181818;stroke-width:0.5;"/><rect fill="#E2E2F0" height="33.0679" rx="2.5" ry="2.5" style="stroke:#181818;stroke-width:0.5;" width="87" x="26.5" y="487.49"/><text fill="#000000" font-family="sans-serif" font-size="14" lengthAdjust="spacing" textLength="73" x="33.5" y="509.4559">Responder</text><rect fill="#E2E2F0" height="33.0679" rx="2.5" ry="2.5" style="stroke:#181818;stroke-width:0.5;" width="68" x="218" y="487.49"/><text fill="#000000" font-family="sans-serif" font-size="14" lengthAdjust="spacing" textLength="54" x="225" y="509.4559">Initiator</text><text fill="#000000" font-family="sans-serif" font-size="14" lengthAdjust="spacing" textLength="31" x="372.5" y="562.4559">User</text><ellipse cx="391" cy="495.99" fill="#E2E2F0" rx="8" ry="8" style="stroke:#181818;stroke-width:0.5;"/><path d="M391,503.99 L391,530.99 M378,511.99 L404,511.99 M391,530.99 L378,545.99 M391,530.99 L404,545.99 " fill="none" style="stroke:#181818;stroke-width:0.5;"/><rect fill="#EEEEEE" height="3" style="stroke:#EEEEEE;stroke-width:1.0;" width="404.5" x="5" y="153.9888"/><line style="stroke:#000000;stroke-width:1.0;" x1="5" x2="409.5" y1="153.9888" y2="153.9888"/><line style="stroke:#000000;stroke-width:1.0;" x1="5" x2="409.5" y1="156.9888" y2="156.9888"/><rect fill="#EEEEEE" height="25.706" style="stroke:#000000;stroke-width:2.0;" width="102" x="156.25" y="142.1358"/><text fill="#000000" font-family="sans-serif" font-size="13" font-weight="bold" lengthAdjust="spacing" textLength="85" x="162.25" y="160.0328">Initialization</text><path d="M10,182.8419 L10,209.8419 L130,209.8419 L130,192.8419 L120,182.8419 L10,182.8419 " fill="#FEFFDD" style="stroke:#181818;stroke-width:0.5;"/><path d="M120,182.8419 L120,192.8419 L130,192.8419 L120,182.8419 " fill="#FEFFDD" style="stroke:#181818;stroke-width:0.5;"/><text fill="#000000" font-family="sans-serif" font-size="13" lengthAdjust="spacing" textLength="99" x="16" y="201.7389">Broadcast Name</text><path d="M176.5,182.8419 L176.5,209.8419 L327.5,209.8419 L327.5,192.8419 L317.5,182.8419 L176.5,182.8419 " fill="#FEFFDD" style="stroke:#181818;stroke-width:0.5;"/><path d="M317.5,182.8419 L317.5,192.8419 L327.5,192.8419 L317.5,182.8419 " fill="#FEFFDD" style="stroke:#181818;stroke-width:0.5;"/><text fill="#000000" font-family="sans-serif" font-size="13" lengthAdjust="spacing" textLength="130" x="182.5" y="201.7389">Listen for Responders</text><rect fill="#EEEEEE" height="3" style="stroke:#EEEEEE;stroke-width:1.0;" width="404.5" x="5" y="237.4009"/><line style="stroke:#000000;stroke-width:1.0;" x1="5" x2="409.5" y1="237.4009" y2="237.4009"/><line style="stroke:#000000;stroke-width:1.0;" x1="5" x2="409.5" y1="240.4009" y2="240.4009"/><rect fill="#EEEEEE" height="25.706" style="stroke:#000000;stroke-width:2.0;" width="217" x="98.75" y="225.5479"/><text fill="#000000" font-family="sans-serif" font-size="13" font-weight="bold" lengthAdjust="spacing" textLength="200" x="104.75" y="243.4449">Initiator Binding to Responder</text><polygon fill="#181818" points="240,280.9599,250,284.9599,240,288.9599,244,284.9599" style="stroke:#181818;stroke-width:1.0;"/><line style="stroke:#181818;stroke-width:1.0;" x1="70" x2="246" y1="284.9599" y2="284.9599"/><text fill="#000000" font-family="sans-serif" font-size="13" lengthAdjust="spacing" textLength="158" x="77" y="279.1509">Name received by Initiator</text><path d="M186,297.9599 L186,324.9599 L318,324.9599 L318,307.9599 L308,297.9599 L186,297.9599 " fill="#FEFFDD" style="stroke:#181818;stroke-width:0.5;"/><path d="M308,297.9599 L308,307.9599 L318,307.9599 L308,297.9599 " fill="#FEFFDD" style="stroke:#181818;stroke-width:0.5;"/><text fill="#000000" font-family="sans-serif" font-size="13" lengthAdjust="spacing" textLength="111" x="192" y="316.8569">Bind to Responder</text><rect fill="#EEEEEE" height="3" style="stroke:#EEEEEE;stroke-width:1.0;" width="404.5" x="5" y="352.5189"/><line style="stroke:#000000;stroke-width:1.0;" x1="5" x2="409.5" y1="352.5189" y2="352.5189"/><line style="stroke:#000000;stroke-width:1.0;" x1="5" x2="409.5" y1="355.5189" y2="355.5189"/><rect fill="#EEEEEE" height="25.706" style="stroke:#000000;stroke-width:2.0;" width="127" x="143.75" y="340.6659"/><text fill="#000000" font-family="sans-serif" font-size="13" font-weight="bold" lengthAdjust="spacing" textLength="110" x="149.75" y="358.5629">User Toggles LED</text><polygon fill="#181818" points="263,396.0779,253,400.0779,263,404.0779,259,400.0779" style="stroke:#181818;stroke-width:1.0;"/><line style="stroke:#181818;stroke-width:1.0;" x1="257" x2="390" y1="400.0779" y2="400.0779"/><text fill="#000000" font-family="sans-serif" font-size="13" lengthAdjust="spacing" textLength="115" x="269" y="394.2689">Press BOOT Button</text><polygon fill="#181818" points="81,427.784,71,431.784,81,435.784,77,431.784" style="stroke:#181818;stroke-width:1.0;"/><line style="stroke:#181818;stroke-width:1.0;" x1="75" x2="251" y1="431.784" y2="431.784"/><text fill="#000000" font-family="sans-serif" font-size="13" lengthAdjust="spacing" textLength="137" x="87" y="425.975">Send Initiator message</text><path d="M26,444.784 L26,471.784 L114,471.784 L114,454.784 L104,444.784 L26,444.784 " fill="#FEFFDD" style="stroke:#181818;stroke-width:0.5;"/><path d="M104,444.784 L104,454.784 L114,454.784 L104,444.784 " fill="#FEFFDD" style="stroke:#181818;stroke-width:0.5;"/><text fill="#000000" font-family="sans-serif" font-size="13" lengthAdjust="spacing" textLength="67" x="32" y="463.681">Toggle LED</text><!--SRC=[NP71JiCm38RlUGfpuSOBJ2hIAZWWJMnYum5CQYfBRL8bxYJszDYXq9ISyij__izsxgQ4_OWW56yWQIRdX6KWUACynT1H0WmTl0GMHea9EC3U2yVWt8H9sFE4GMfxXgHYKrsVQvLLEFIcVivxfkMgrLc5Sqspl1duXaQ3fd4kH268LtKR0NRGfeYTnopmYgEsVW-hnJ1gEN0M2l2fjByUSmMmDbeE7OSU95Pp6B1W7Xv_imoYQ4zyfGu-ljQ8khV5RA6Rn08jirvYtm-KuV3yL30sSuKvAJP3UpnUe9r5RDMbeevbxZDj_cHKF_RqVq6x1MGSzmq0]--></g></svg>